<?xml version="1.0" ?><svg id="Layer_1" style="enable-background:new 0 0 512 512;" version="1.1" viewBox="0 0 512 512" xml:space="preserve" xmlns="http://www.w3.org/2000/svg" xmlns:xlink="http://www.w3.org/1999/xlink"><style type="text/css">
	.st0{fill:#D08C21;}
	.st1{fill:#F8BEB6;}
	.st2{fill:#58341E;}
	.st3{fill:#FFFFFF;}
	.st4{fill:#FFC35A;}
	.st5{fill:#E52E3B;}
	.st6{fill:#1893EF;}
</style><g id="XMLID_6_"><path class="st0" d="M256,6C117.9,6,6,117.9,6,256s111.9,250,250,250s250-111.9,250-250S394.1,6,256,6z M256,333   c-42.5,0-77-34.5-77-77c0-42.5,34.5-77,77-77s77,34.5,77,77C333,298.5,298.5,333,256,333z" id="XMLID_463_"/><path class="st1" d="M492.2,232.7c-4.4-11.6-5.8-24.1-6.1-37c-0.8-30.7,4.5-63.1-10.8-87.5   c-12.8-20.4-38.4-27.1-57-42.1c-18.6-15-32.3-39.6-55.6-43.3c-12.6-2-25.1,2.8-37.8,4.4c-31.7,4-61.5-11.2-92.7-13.2   C197.4,11.9,168,34,134.4,39.6c-27.5,4.6-26.6,14.2-39.4,36.1c-8.2,13.9-21.7,24.6-33.9,34.6c-17.7,14.4-41.4,28-50.4,50.5   c-10,25.2,0.6,53.5,9.6,79.1c11.8,33.7,20.9,68.5,26.9,103.8c4.2,24.2,8.9,61.3,31.4,75.9c10.9,7.1,27,6.7,39.2,11.6   c15.7,6.4,30.2,16,42.3,28.1c16.1,16.2,30.2,38,52.4,41.6c25.4,4.1,47.8-17.9,73.2-21.4c22.2-3.1,45.9,8,66.6-0.7   c16.6-7,26.2-24.6,38.6-38c12.4-13.4,28.1-22.8,42.4-33.9c22.3-17.4,41.4-39.3,55.7-64.1C512.6,301.8,508,274,492.2,232.7z    M255.8,332c-39.7-7.4-92.9-24.1-79.4-75.3c2.7-10.1,8.2-19.2,10.3-29.4c1-5,1.2-10.1,3-14.9c3.6-9.7,12.5-8.4,19.4-13.9   c5.8-4.6,7.2-13.1,14-16.5c5.4-2.8,11.9-1.6,17.9-3c4.6-1.1,8.8-3.6,13.3-5c5-1.5,10.2-1.5,15.3-1.4c3,0,10.3,8.3,13.1,9.5   c9.6,4.2,17.5-1.6,25,6.1c5.9,6,7,13.5,10.3,20.9c2.9,6.7,8.7,11.2,12.1,17.6c6.8,12.8,2.1,31.1,0.9,44.8   c-0.8,8.4,0.2,17.5-3.4,25.1c-4.3,9.2-9.1,6.9-22.8,15.5c-5,3.1-17.3,12.2-22.6,14.7C274,330.7,264.5,333.6,255.8,332z" id="XMLID_460_"/><path class="st2" d="M312.9,437.6c1-19.7,3.7-39.2,8.5-58.4c4.8-19,11-37.6,16.1-56.5   c10.3-38.2,14.8-77.7,13.3-117.3c-1.5-39.6-11.2-76.6-20.5-114.8c-5.1-20.7-8.5-41.7-10.3-62.9c-27.7,1.9-54-9.8-81.2-13   c-2.5,22.5-2,45.4-0.2,68c2.5,31.4,6.9,62.6,8.9,94.1c2.3-1,4.6-2,7-2.7c5-1.5,10.2-1.5,15.3-1.4c3,0,10.3,8.3,13.1,9.5   c9.6,4.2,17.5-1.6,25,6.1c5.9,6,7,13.5,10.3,20.9c2.9,6.7,8.7,11.2,12.1,17.6c6.8,12.8,2.1,31.1,0.9,44.8   c-0.8,8.4,0.2,17.5-3.4,25.1c-4.3,9.2-9.1,6.9-22.8,15.5c-5,3.1-17.3,12.2-22.6,14.7c-8.5,4-18,6.9-26.7,5.3c-2-0.4-4-0.8-6.1-1.2   c1.6,33,3.7,66.2,1.3,99.1c-1.3,17.9-4.5,35.3-11.5,51.9c-2.4,5.7-5.6,11.7-8.3,17.8c18.1-4.7,35.5-17.6,54.5-20.3   c8.7-1.2,17.6-0.2,26.5,0.9C312.1,466,312.2,451.8,312.9,437.6z" id="XMLID_19_"/><path class="st2" d="M232.5,419.9c1.3-31.3-0.7-62.5-2.1-93.8c-33.3-9.7-64.8-28.7-54.1-69.4   c2.7-10.1,8.2-19.2,10.3-29.4c1-5,1.2-10.1,3-14.9c3.6-9.7,12.5-8.4,19.4-13.9c5.8-4.6,7.2-13.1,14-16.5c1.8-0.9,3.6-1.4,5.5-1.7   C225.8,125.4,214,69,219.6,14.3c-29.5,2.7-55.7,20.4-85.2,25.3c-1.5,0.3-2.9,0.5-4.3,0.8c0.9,22.7,1,45.3,0.6,68   c-1.3,76-7.3,152.1-1.6,228c2.8,37,10.1,72.8,17.6,109.1c0.2,0.8,0.3,1.6,0.5,2.5c4.5,3.5,8.9,7.2,12.9,11.3   c15.7,15.8,29.6,36.9,50.8,41.3c2.5-7,5.7-13.9,8.9-20.9C228.5,460.6,231.7,440.6,232.5,419.9z" id="XMLID_323_"/><path class="st2" d="M32.1,137.6c-0.2-1.4-0.4-2.8-0.7-4.2c-8.8,7.7-16.5,16.5-20.8,27.2   c-10,25.2,0.6,53.5,9.6,79.1c11.7,33.5,20.7,68,26.8,103c0-35.2-2.6-70.5-4.7-105.2C40.4,204.1,37.4,170.8,32.1,137.6z" id="XMLID_324_"/><path class="st2" d="M108.9,205.3c1.6-52.1,4.1-104.4,2.6-156.5c-6.2,5.8-9.1,14.3-16.4,26.8   c-8.2,13.9-21.7,24.6-33.9,34.6c-4,3.3-8.3,6.5-12.7,9.8c1.9,12.3,4,24.5,5.7,36.6c4.4,32.5,6.5,65.2,8.3,98   c1.7,30.9,3.5,61.9,3.3,92.9c-0.1,18-0.9,36-2.8,53.9c4,7.4,9.1,13.7,15.8,18c10.9,7.1,27,6.7,39.2,11.6c2.4,1,4.8,2.1,7.1,3.2   c-0.5-2.3-1-4.5-1.5-6.8C107.6,354.2,106.6,280,108.9,205.3z" id="XMLID_329_"/><path class="st2" d="M492.2,232.7c-4.4-11.6-5.8-24.1-6.1-37c-0.8-30.7,4.5-63.1-10.8-87.5   c-5.9-9.4-14.6-15.9-24-21.7c0.6,8.2,1.5,16.4,2.7,24.6c4.8,33.7,9.2,67.2,10.8,101.3c1.6,34.7,1.7,69.5,2,104.3   c0.2,19.6,0.5,38.8-0.5,58.1c8.5-10.1,16.1-20.9,22.7-32.3C512.6,301.8,508,274,492.2,232.7z" id="XMLID_330_"/><path class="st2" d="M447.6,300c-0.3-34.9-0.6-69.8-2.8-104.6c-2.2-34.6-8.8-68.4-12.2-102.8   c-0.6-5.8-0.9-11.5-1-17.2c-4.7-2.8-9.2-5.7-13.4-9.1c-18.6-15-32.3-39.6-55.6-43.3c-7.9-1.3-15.7,0.1-23.6,1.8   c2.3,25.9,7.1,51.5,13.7,77.1c9.6,37,16.7,74.1,17.3,112.5c0.6,37.2-3.9,74.6-13.4,110.6c-4.9,18.5-11,36.6-15.8,55.1   c-5.1,19.5-8,39.1-9,59.2c-0.7,14.3-0.7,28.6-0.5,42.8c7.2,0.2,14.3-0.5,21-3.4c16.6-7,26.2-24.6,38.6-38   c12.4-13.4,28.1-22.8,42.4-33.9c4.3-3.4,8.6-7,12.7-10.7C450.4,364.4,447.9,331.7,447.6,300z" id="XMLID_331_"/><g id="XMLID_468_"><path class="st3" d="M260,151.6c-0.6-0.4-1-1.1-1.1-1.8c-0.2-1.4,0.8-2.8,2.2-3c0.4-0.1,10-1.3,20.6,8.7    c1.1,1,1.1,2.7,0.1,3.8c-1,1.1-2.7,1.1-3.8,0.1c-8.6-8.1-15.9-7.3-16.2-7.3C261.2,152.1,260.5,151.9,260,151.6z" id="XMLID_469_"/></g><g id="XMLID_466_"><path class="st3" d="M323.4,80.4c-0.6-0.4-1-1.1-1.1-1.8c-0.2-1.4,0.8-2.8,2.2-3c0.4-0.1,10-1.3,20.6,8.7    c1.1,1,1.1,2.7,0.1,3.8c-1,1.1-2.7,1.1-3.8,0.1c-8.6-8.1-15.9-7.3-16.2-7.3C324.6,80.9,324,80.7,323.4,80.4z" id="XMLID_467_"/></g><g id="XMLID_458_"><path class="st3" d="M451,177.4c-0.6-0.4-1-1.1-1.1-1.8c-0.2-1.4,0.8-2.8,2.2-3c0.4-0.1,10-1.3,20.6,8.7    c1.1,1,1.1,2.7,0.1,3.8c-1,1.1-2.7,1.1-3.8,0.1c-8.6-8.1-15.9-7.3-16.2-7.3C452.2,177.9,451.6,177.8,451,177.4z" id="XMLID_459_"/></g><g id="XMLID_456_"><path class="st3" d="M178.9,53.9c-0.6-0.4-1-1.1-1.1-1.8c-0.2-1.4,0.8-2.8,2.2-3c0.4-0.1,10-1.3,20.6,8.7    c1.1,1,1.1,2.7,0.1,3.8c-1,1.1-2.7,1.1-3.8,0.1c-8.6-8.1-15.9-7.3-16.2-7.3C180.1,54.4,179.4,54.2,178.9,53.9z" id="XMLID_457_"/></g><g id="XMLID_454_"><path class="st3" d="M414.8,269.5c-0.6-0.4-1-1.1-1.1-1.8c-0.2-1.4,0.8-2.8,2.2-3c0.4-0.1,10-1.3,20.6,8.7    c1.1,1,1.1,2.7,0.1,3.8c-1,1.1-2.7,1.1-3.8,0.1c-8.6-8.1-15.9-7.3-16.2-7.3C416,270,415.3,269.8,414.8,269.5z" id="XMLID_455_"/></g><g id="XMLID_452_"><path class="st3" d="M406.2,411.7c-0.6-0.4-1-1.1-1.1-1.8c-0.2-1.4,0.8-2.8,2.2-3c0.4-0.1,10-1.3,20.6,8.7    c1.1,1,1.1,2.7,0.1,3.8c-1,1.1-2.7,1.1-3.8,0.1c-8.6-8.1-15.9-7.3-16.2-7.3C407.4,412.2,406.7,412,406.2,411.7z" id="XMLID_453_"/></g><g id="XMLID_450_"><path class="st3" d="M121.6,117.9c-0.6-0.4-1-1.1-1.1-1.8c-0.2-1.4,0.8-2.8,2.2-3c0.4-0.1,10-1.3,20.6,8.7    c1.1,1,1.1,2.7,0.1,3.8c-1,1.1-2.7,1.1-3.8,0.1c-8.6-8.1-15.9-7.3-16.2-7.3C122.8,118.4,122.1,118.3,121.6,117.9z" id="XMLID_451_"/></g><g id="XMLID_448_"><path class="st3" d="M299.3,417.4c-0.6-0.4-1-1.1-1.1-1.8c-0.2-1.4,0.8-2.8,2.2-3c0.4-0.1,10-1.3,20.6,8.7    c1.1,1,1.1,2.7,0.1,3.8c-1,1.1-2.7,1.1-3.8,0.1c-8.6-8.1-15.9-7.3-16.2-7.3C300.5,418,299.9,417.8,299.3,417.4z" id="XMLID_449_"/></g><g id="XMLID_446_"><path class="st3" d="M450.3,346.7c-0.6-0.4-1-1.1-1.1-1.8c-0.2-1.4,0.8-2.8,2.2-3c0.4-0.1,10-1.3,20.6,8.7    c1.1,1,1.1,2.7,0.1,3.8c-1,1.1-2.7,1.1-3.8,0.1c-8.6-8.1-15.9-7.3-16.2-7.3C451.5,347.2,450.9,347,450.3,346.7z" id="XMLID_447_"/></g><g id="XMLID_444_"><path class="st3" d="M159.9,449.1c-0.6-0.4-1-1.1-1.1-1.8c-0.2-1.4,0.8-2.8,2.2-3c0.4-0.1,10-1.3,20.6,8.7    c1.1,1,1.1,2.7,0.1,3.8c-1,1.1-2.7,1.1-3.8,0.1c-8.6-8.1-15.9-7.3-16.2-7.3C161,449.6,160.4,449.4,159.9,449.1z" id="XMLID_445_"/></g><g id="XMLID_442_"><path class="st3" d="M134,369.9c-0.6-0.4-1-1.1-1.1-1.8c-0.2-1.4,0.8-2.8,2.2-3c0.4-0.1,10-1.3,20.6,8.7    c1.1,1,1.1,2.7,0.1,3.8c-1,1.1-2.7,1.1-3.8,0.1c-8.6-8.1-15.9-7.3-16.2-7.3C135.2,370.5,134.6,370.3,134,369.9z" id="XMLID_443_"/></g><g id="XMLID_440_"><path class="st3" d="M39.2,248.3c-0.6-0.4-1-1.1-1.1-1.8c-0.2-1.4,0.8-2.8,2.2-3c0.4-0.1,10-1.3,20.6,8.7    c1.1,1,1.1,2.7,0.1,3.8c-1,1.1-2.7,1.1-3.8,0.1c-8.6-8.1-15.9-7.3-16.2-7.3C40.4,248.8,39.8,248.7,39.2,248.3z" id="XMLID_441_"/></g><g id="XMLID_438_"><path class="st3" d="M156.7,314.2c-0.6-0.4-1-1.1-1.1-1.8c-0.2-1.4,0.8-2.8,2.2-3c0.4-0.1,10-1.3,20.6,8.7    c1.1,1,1.1,2.7,0.1,3.8c-1,1.1-2.7,1.1-3.8,0.1c-8.6-8.1-15.9-7.3-16.2-7.3C157.9,314.7,157.3,314.6,156.7,314.2z" id="XMLID_439_"/></g><g id="XMLID_436_"><path class="st3" d="M71.2,313.1c0.1-0.7,0.5-1.4,1.2-1.8c1.2-0.8,2.9-0.4,3.6,0.8c0.2,0.3,5.3,8.5,0.6,22.3    c-0.5,1.4-2,2.1-3.4,1.7c-1.4-0.5-2.1-2-1.7-3.4c3.8-11.2,0.1-17.5-0.1-17.8C71.2,314.4,71.1,313.7,71.2,313.1z" id="XMLID_437_"/></g><g id="XMLID_434_"><path class="st3" d="M125.2,198.9c-0.6-0.4-1-1.1-1.1-1.8c-0.2-1.4,0.8-2.8,2.2-3c0.4-0.1,10-1.3,20.6,8.7    c1.1,1,1.1,2.7,0.1,3.8c-1,1.1-2.7,1.1-3.8,0.1c-8.6-8.1-15.9-7.3-16.2-7.3C126.3,199.4,125.7,199.2,125.2,198.9z" id="XMLID_435_"/></g><g id="XMLID_432_"><path class="st3" d="M258.8,77.8c-0.6-0.4-1-1.1-1.1-1.8c-0.2-1.4,0.8-2.8,2.2-3c0.4-0.1,10-1.3,20.6,8.7    c1.1,1,1.1,2.7,0.1,3.8c-1,1.1-2.7,1.1-3.8,0.1c-8.6-8.1-15.9-7.3-16.2-7.3C259.9,78.4,259.3,78.2,258.8,77.8z" id="XMLID_433_"/></g><g id="XMLID_430_"><path class="st3" d="M379.7,125.6c-0.7,0.2-1.5,0.1-2.1-0.3c-1.2-0.8-1.6-2.4-0.9-3.6c0.2-0.3,5.4-8.5,19.8-10.3    c1.5-0.2,2.8,0.9,3,2.3c0.2,1.5-0.9,2.8-2.3,3c-11.8,1.4-15.8,7.5-16,7.8C380.8,125,380.3,125.4,379.7,125.6z" id="XMLID_431_"/></g><g id="XMLID_428_"><path class="st3" d="M218.6,363.1c-0.7,0.2-1.5,0.1-2.1-0.3c-1.2-0.8-1.6-2.4-0.9-3.6c0.2-0.3,5.4-8.5,19.8-10.3    c1.5-0.2,2.8,0.9,3,2.3c0.2,1.5-0.9,2.8-2.3,3c-11.8,1.4-15.8,7.5-16,7.8C219.8,362.5,219.2,362.9,218.6,363.1z" id="XMLID_429_"/></g><g id="XMLID_426_"><path class="st3" d="M372.7,202.5c-0.7,0.2-1.5,0.1-2.1-0.3c-1.2-0.8-1.6-2.4-0.9-3.6c0.2-0.3,5.4-8.5,19.8-10.3    c1.5-0.2,2.8,0.9,3,2.3c0.2,1.5-0.9,2.8-2.3,3c-11.8,1.4-15.8,7.5-16,7.8C373.9,201.9,373.3,202.3,372.7,202.5z" id="XMLID_427_"/></g><g id="XMLID_424_"><path class="st3" d="M300.8,61.3c-0.7,0.2-1.5,0.1-2.1-0.3c-1.2-0.8-1.6-2.4-0.9-3.6c0.2-0.3,5.4-8.5,19.8-10.3    c1.5-0.2,2.8,0.9,3,2.3c0.2,1.5-0.9,2.8-2.3,3c-11.8,1.4-15.8,7.5-16,7.8C302,60.8,301.4,61.2,300.8,61.3z" id="XMLID_425_"/></g><g id="XMLID_422_"><path class="st4" d="M222.5,104c-1.4-0.9-2-2.7-1.6-4.3c-0.9-1.8-6-5.6-11-8.2c-1.9-1-2.7-3.4-1.7-5.3    c1-1.9,3.4-2.7,5.3-1.7c6.9,3.5,18,10.5,14.9,17.7c-0.8,2-3.2,3-5.2,2.1C223,104.2,222.7,104.1,222.5,104z" id="XMLID_423_"/></g><g id="XMLID_420_"><path class="st4" d="M188.4,177.2c-1.4-0.9-2-2.7-1.6-4.3c-0.9-1.8-6-5.6-11-8.2c-1.9-1-2.7-3.4-1.7-5.3    c1-1.9,3.4-2.7,5.3-1.7c6.9,3.5,18,10.5,14.9,17.7c-0.8,2-3.2,3-5.2,2.1C188.9,177.5,188.6,177.4,188.4,177.2z" id="XMLID_421_"/></g><g id="XMLID_418_"><path class="st4" d="M89.2,215.9c-1.1,1.2-2.9,1.7-4.5,1c-1.9,0.6-6.3,5.3-9.5,9.9c-1.2,1.8-3.7,2.3-5.5,1    c-1.8-1.2-2.3-3.7-1-5.5c4.4-6.4,12.7-16.5,19.5-12.5c1.9,1.1,2.5,3.5,1.4,5.4C89.5,215.5,89.4,215.7,89.2,215.9z" id="XMLID_419_"/></g><g id="XMLID_416_"><path class="st4" d="M128.6,397c-1.1,1.2-2.9,1.7-4.5,1c-1.9,0.6-6.3,5.3-9.5,9.9c-1.2,1.8-3.7,2.3-5.5,1    c-1.8-1.2-2.3-3.7-1-5.5c4.4-6.4,12.7-16.5,19.5-12.5c1.9,1.1,2.5,3.5,1.4,5.4C128.9,396.6,128.8,396.8,128.6,397z" id="XMLID_417_"/></g><g id="XMLID_414_"><path class="st4" d="M277.3,429.9c-1.1,1.2-2.9,1.7-4.5,1c-1.9,0.6-6.3,5.3-9.5,9.9c-1.2,1.8-3.7,2.3-5.5,1    c-1.8-1.2-2.3-3.7-1-5.5c4.4-6.4,12.7-16.5,19.5-12.5c1.9,1.1,2.5,3.5,1.4,5.4C277.7,429.5,277.5,429.7,277.3,429.9z" id="XMLID_415_"/></g><g id="XMLID_412_"><path class="st4" d="M355.9,177.6c-1.1,1.2-2.9,1.7-4.5,1c-1.9,0.6-6.3,5.3-9.5,9.9c-1.2,1.8-3.7,2.3-5.5,1    c-1.8-1.2-2.3-3.7-1-5.5c4.4-6.4,12.7-16.5,19.5-12.5c1.9,1.1,2.5,3.5,1.4,5.4C356.2,177.1,356.1,177.4,355.9,177.6z" id="XMLID_413_"/></g><g id="XMLID_410_"><path class="st4" d="M320.8,113.7c-1.1,1.2-2.9,1.7-4.5,1c-1.9,0.6-6.3,5.3-9.5,9.9c-1.2,1.8-3.7,2.3-5.5,1    c-1.8-1.2-2.3-3.7-1-5.5c4.4-6.4,12.7-16.5,19.5-12.5c1.9,1.1,2.5,3.5,1.4,5.4C321.1,113.2,320.9,113.5,320.8,113.7z" id="XMLID_411_"/></g><g id="XMLID_408_"><path class="st4" d="M111.6,312c-1.4-0.9-2-2.7-1.6-4.3c-0.9-1.8-6-5.6-11-8.2c-1.9-1-2.7-3.4-1.7-5.3    c1-1.9,3.4-2.7,5.3-1.7c6.9,3.5,18,10.5,14.9,17.7c-0.8,2-3.2,3-5.2,2.1C112,312.3,111.8,312.2,111.6,312z" id="XMLID_409_"/></g><g id="XMLID_406_"><path class="st4" d="M179.1,364.8c-1.4-0.9-2-2.7-1.6-4.3c-0.9-1.8-6-5.6-11-8.2c-1.9-1-2.7-3.4-1.7-5.3    c1-1.9,3.4-2.7,5.3-1.7c6.9,3.5,18,10.5,14.9,17.7c-0.8,2-3.2,3-5.2,2.1C179.6,365.1,179.3,365,179.1,364.8z" id="XMLID_407_"/></g><g id="XMLID_404_"><path class="st4" d="M383.7,255.3c-1.4-0.9-2-2.7-1.6-4.3c-0.9-1.8-6-5.6-11-8.2c-1.9-1-2.7-3.4-1.7-5.3    c1-1.9,3.4-2.7,5.3-1.7c6.9,3.5,18,10.5,14.9,17.7c-0.8,2-3.2,3-5.2,2.1C384.1,255.6,383.9,255.5,383.7,255.3z" id="XMLID_405_"/></g><g id="XMLID_402_"><path class="st4" d="M478.3,232.3c-1.4-0.9-2-2.7-1.6-4.3c-0.9-1.8-6-5.6-11-8.2c-1.9-1-2.7-3.4-1.7-5.3    c1-1.9,3.4-2.7,5.3-1.7c6.9,3.5,18,10.5,14.9,17.7c-0.8,2-3.2,3-5.2,2.1C478.7,232.6,478.5,232.4,478.3,232.3z" id="XMLID_403_"/></g><g id="XMLID_400_"><path class="st4" d="M236.4,48.8c0.3,1.6-0.5,3.3-2,4.1c-0.7,1.8,0.1,8.2,1.7,13.6c0.6,2.1-0.6,4.3-2.7,4.9    c-2.1,0.6-4.3-0.6-4.9-2.7c-2.2-7.4-4.8-20.2,2.6-23c2-0.8,4.3,0.3,5.1,2.3C236.3,48.3,236.4,48.5,236.4,48.8z" id="XMLID_401_"/></g><g id="XMLID_398_"><path class="st4" d="M330.6,347.9c0.3,1.6-0.5,3.3-2,4.1c-0.7,1.8,0.1,8.2,1.7,13.6c0.6,2.1-0.6,4.3-2.7,4.9    c-2.1,0.6-4.3-0.6-4.9-2.7c-2.2-7.4-4.8-20.2,2.6-23c2-0.8,4.3,0.3,5.1,2.3C330.5,347.4,330.6,347.7,330.6,347.9z" id="XMLID_399_"/></g><g id="XMLID_394_"><path class="st4" d="M43.1,160.8c0.3,1.6-0.5,3.3-2,4.1c-0.7,1.8,0.1,8.2,1.7,13.6c0.6,2.1-0.6,4.3-2.7,4.9    c-2.1,0.6-4.3-0.6-4.9-2.7c-2.2-7.4-4.8-20.2,2.6-23c2-0.8,4.3,0.3,5.1,2.3C43,160.3,43.1,160.5,43.1,160.8z" id="XMLID_395_"/></g><g id="XMLID_392_"><path class="st4" d="M365,427.4c1.7-0.1,3.2,0.9,3.9,2.5c1.7,0.9,8.2,0.8,13.7-0.1c2.1-0.4,4.2,1.1,4.6,3.2    c0.4,2.2-1.1,4.2-3.2,4.6c-7.6,1.3-20.7,2.4-22.6-5.2c-0.5-2.1,0.8-4.3,2.9-4.8C364.5,427.4,364.7,427.4,365,427.4z" id="XMLID_393_"/></g><g id="XMLID_390_"><path class="st5" d="M179.7,129c-0.1,0-0.1-0.1-0.2-0.1c-8-6.2-10.2-18.7-10.3-19.3c-0.4-2.2,1.1-4.2,3.2-4.6    c2.2-0.4,4.2,1.1,4.6,3.2l0,0c0.5,2.8,2.7,10.8,7.3,14.3c1.7,1.3,2.1,3.8,0.7,5.5C183.7,129.8,181.4,130.2,179.7,129z" id="XMLID_391_"/></g><g id="XMLID_388_"><path class="st5" d="M140,263.4c-0.1,0-0.1-0.1-0.2-0.1c-8-6.2-10.2-18.7-10.3-19.3c-0.4-2.2,1.1-4.2,3.2-4.6    c2.2-0.4,4.2,1.1,4.6,3.2l0,0c0.5,2.8,2.7,10.8,7.3,14.3c1.7,1.3,2.1,3.8,0.7,5.5C144.1,264.2,141.7,264.6,140,263.4z" id="XMLID_389_"/></g><g id="XMLID_386_"><path class="st5" d="M301.3,466.2c-0.1,0-0.1-0.1-0.2-0.1c-8-6.2-10.2-18.7-10.3-19.3c-0.4-2.2,1.1-4.2,3.2-4.6    c2.2-0.4,4.2,1.1,4.6,3.2l0,0c0.5,2.8,2.7,10.8,7.3,14.3c1.7,1.3,2.1,3.8,0.7,5.5C305.3,467,303,467.3,301.3,466.2z" id="XMLID_387_"/></g><g id="XMLID_384_"><path class="st5" d="M387.2,288.2c-0.1,0-0.1,0.1-0.2,0.1c-9.2,4.1-21.3,0.2-21.8,0c-2.1-0.7-3.2-2.9-2.5-5    c0.7-2.1,2.9-3.2,5-2.5l0,0c2.7,0.9,10.8,2.7,16.1,0.3c2-0.9,4.3,0,5.2,2C389.8,285,389,287.3,387.2,288.2z" id="XMLID_385_"/></g><g id="XMLID_382_"><path class="st5" d="M441.6,135.6c-0.1,0-0.1-0.1-0.2-0.1c-8-6.2-10.2-18.7-10.3-19.3c-0.4-2.2,1.1-4.2,3.2-4.6    c2.2-0.4,4.2,1.1,4.6,3.2l0,0c0.5,2.8,2.7,10.8,7.3,14.3c1.7,1.3,2.1,3.8,0.7,5.5C445.7,136.4,443.3,136.8,441.6,135.6z" id="XMLID_383_"/></g><g id="XMLID_380_"><path class="st5" d="M287.9,384.1c-0.1,0-0.1-0.1-0.2-0.1c-8-6.2-10.2-18.7-10.3-19.3c-0.4-2.2,1.1-4.2,3.2-4.6    c2.2-0.4,4.2,1.1,4.6,3.2l0,0c0.5,2.8,2.7,10.8,7.3,14.3c1.7,1.3,2.1,3.8,0.7,5.5C292,384.9,289.6,385.3,287.9,384.1z" id="XMLID_381_"/></g><g id="XMLID_378_"><path class="st5" d="M223.3,429.2c-0.1,0-0.1-0.1-0.2-0.1c-8-6.2-10.2-18.7-10.3-19.3c-0.4-2.2,1.1-4.2,3.2-4.6    c2.2-0.4,4.2,1.1,4.6,3.2l0,0c0.5,2.8,2.7,10.8,7.3,14.3c1.7,1.3,2.1,3.8,0.7,5.5C227.4,430,225,430.4,223.3,429.2z" id="XMLID_379_"/></g><g id="XMLID_376_"><path class="st5" d="M432,384.2c-0.1,0-0.1-0.1-0.2-0.1c-8-6.2-10.2-18.7-10.3-19.3c-0.4-2.2,1.1-4.2,3.2-4.6    c2.2-0.4,4.2,1.1,4.6,3.2l0,0c0.5,2.8,2.7,10.8,7.3,14.3c1.7,1.3,2.1,3.8,0.7,5.5C436,385,433.7,385.4,432,384.2z" id="XMLID_377_"/></g><g id="XMLID_374_"><path class="st5" d="M424.6,213.6c0,0.1-0.1,0.1-0.1,0.2c-5,8.8-17.1,12.7-17.6,12.9c-2.1,0.7-4.3-0.5-5-2.6    c-0.7-2.1,0.5-4.3,2.6-5l0,0c2.7-0.9,10.3-4.2,13.2-9.2c1.1-1.9,3.5-2.6,5.4-1.5C424.9,209.5,425.6,211.8,424.6,213.6z" id="XMLID_375_"/></g><g id="XMLID_372_"><path class="st5" d="M145.5,338.9c0,0.1-0.1,0.1-0.1,0.2c-5,8.8-17.1,12.7-17.6,12.9c-2.1,0.7-4.3-0.5-5-2.6    c-0.7-2.1,0.5-4.3,2.6-5l0,0c2.7-0.9,10.3-4.2,13.2-9.2c1.1-1.9,3.5-2.6,5.4-1.5C145.7,334.7,146.4,337,145.5,338.9z" id="XMLID_373_"/></g><g id="XMLID_368_"><path class="st5" d="M365.8,394.9c0,0.1-0.1,0.1-0.1,0.2c-5,8.8-17.1,12.7-17.6,12.9c-2.1,0.7-4.3-0.5-5-2.6    c-0.7-2.1,0.5-4.3,2.6-5l0,0c2.7-0.9,10.3-4.2,13.2-9.2c1.1-1.9,3.5-2.6,5.4-1.5C366,390.8,366.7,393.1,365.8,394.9z" id="XMLID_369_"/></g><g id="XMLID_366_"><path class="st5" d="M431.3,310.8c0,0.1-0.1,0.1-0.1,0.2c-5,8.8-17.1,12.7-17.6,12.9c-2.1,0.7-4.3-0.5-5-2.6    c-0.7-2.1,0.5-4.3,2.6-5l0,0c2.7-0.9,10.3-4.2,13.2-9.2c1.1-1.9,3.5-2.6,5.4-1.5C431.5,306.7,432.2,309,431.3,310.8z" id="XMLID_367_"/></g><g id="XMLID_364_"><path class="st5" d="M87.1,263.3c0,0.1-0.1,0.1-0.1,0.2c-5,8.8-17.1,12.7-17.6,12.9c-2.1,0.7-4.3-0.5-5-2.6    c-0.7-2.1,0.5-4.3,2.6-5l0,0c2.7-0.9,10.3-4.2,13.2-9.2c1.1-1.9,3.5-2.6,5.4-1.5C87.3,259.2,88,261.4,87.1,263.3z" id="XMLID_365_"/></g><g id="XMLID_362_"><path class="st5" d="M94,177c0,0.1-0.1,0.1-0.1,0.2c-5,8.8-17.1,12.7-17.6,12.9c-2.1,0.7-4.3-0.5-5-2.6    c-0.7-2.1,0.5-4.3,2.6-5l0,0c2.7-0.9,10.3-4.2,13.2-9.2c1.1-1.9,3.5-2.6,5.4-1.5C94.2,172.9,94.9,175.1,94,177z" id="XMLID_363_"/></g><g id="XMLID_360_"><path class="st5" d="M343.2,142.8c0,0.1-0.1,0.1-0.1,0.2c-5,8.8-17.1,12.7-17.6,12.9c-2.1,0.7-4.3-0.5-5-2.6    c-0.7-2.1,0.5-4.3,2.6-5l0,0c2.7-0.9,10.3-4.2,13.2-9.2c1.1-1.9,3.5-2.6,5.4-1.5C343.4,138.7,344.1,141,343.2,142.8z" id="XMLID_361_"/></g><g id="XMLID_358_"><path class="st5" d="M395.6,86c0,0.1-0.1,0.1-0.1,0.2c-5,8.8-17.1,12.7-17.6,12.9c-2.1,0.7-4.3-0.5-5-2.6    c-0.7-2.1,0.5-4.3,2.6-5l0,0c2.7-0.9,10.3-4.2,13.2-9.2c1.1-1.9,3.5-2.6,5.4-1.5C395.8,81.9,396.5,84.2,395.6,86z" id="XMLID_359_"/></g><g id="XMLID_356_"><path class="st5" d="M197.5,400.3c0,0.1-0.1,0.1-0.1,0.2c-5,8.8-17.1,12.7-17.6,12.9c-2.1,0.7-4.3-0.5-5-2.6    c-0.7-2.1,0.5-4.3,2.6-5l0,0c2.7-0.9,10.3-4.2,13.2-9.2c1.1-1.9,3.5-2.6,5.4-1.5C197.7,396.1,198.4,398.4,197.5,400.3z" id="XMLID_357_"/></g><g id="XMLID_354_"><path class="st5" d="M135,155.9c-0.1,0-0.1,0.1-0.2,0.1c-8.9,4.7-21.3,1.5-21.8,1.4c-2.1-0.6-3.4-2.7-2.8-4.8    c0.6-2.1,2.7-3.4,4.8-2.8l0,0c2.7,0.7,11,2,16.1-0.7c1.9-1,4.3-0.3,5.3,1.6C137.4,152.6,136.8,154.8,135,155.9z" id="XMLID_355_"/></g><g id="XMLID_352_"><path class="st5" d="M275.1,123.6c-0.1,0-0.1-0.1-0.2-0.1c-8-6.2-10.2-18.7-10.3-19.3c-0.4-2.2,1.1-4.2,3.2-4.6    c2.2-0.4,4.2,1.1,4.6,3.2l0,0c0.5,2.8,2.7,10.8,7.3,14.3c1.7,1.3,2.1,3.8,0.7,5.5C279.2,124.4,276.9,124.8,275.1,123.6z" id="XMLID_353_"/></g><g id="XMLID_350_"><path class="st6" d="M132.7,76.7c-1.5-1-2.1-2.9-1.5-4.6c0.7-2,3-3.1,5-2.4c0.4,0.1,6.7,2,15.6-4.3    c1.8-1.3,4.2-0.8,5.5,0.9c1.3,1.8,0.8,4.3-0.9,5.5c-12.6,8.9-22.4,5.5-22.8,5.3C133.2,77,132.9,76.9,132.7,76.7z" id="XMLID_351_"/></g><g id="XMLID_348_"><path class="st6" d="M263.9,34.1c0.7-1.2,2.2-1.7,3.6-1.3c1.6,0.5,2.5,2.2,2,3.9c-0.1,0.3-1.4,5.3,3.8,12.1    c1,1.4,0.8,3.3-0.6,4.3c-1.4,1-3.3,0.8-4.3-0.6c-7.3-9.6-4.9-17.4-4.7-17.7C263.7,34.6,263.8,34.3,263.9,34.1z" id="XMLID_349_"/></g><g id="XMLID_346_"><path class="st6" d="M227.8,390.6c-1.5-1-2.1-2.9-1.5-4.6c0.7-2,3-3.1,5-2.4c0.4,0.1,6.7,2,15.6-4.3    c1.8-1.3,4.2-0.8,5.5,0.9c1.3,1.8,0.8,4.3-0.9,5.5c-12.6,8.9-22.4,5.5-22.8,5.3C228.4,390.9,228.1,390.8,227.8,390.6z" id="XMLID_347_"/></g><g id="XMLID_344_"><path class="st6" d="M235.2,438.6c1.7-0.5,3.6,0.1,4.5,1.7c1.1,1.9,0.5,4.3-1.3,5.4c-0.3,0.2-5.7,4-6.4,14.9    c-0.1,2.2-2,3.8-4.2,3.7c-2.2-0.1-3.8-2-3.7-4.2c0.9-15.4,9.8-20.9,10.2-21.1C234.6,438.8,234.9,438.7,235.2,438.6z" id="XMLID_345_"/></g><g id="XMLID_342_"><path class="st6" d="M102.6,95.6c1.7-0.5,3.6,0.1,4.5,1.7c1.1,1.9,0.5,4.3-1.3,5.4c-0.3,0.2-5.7,4-6.4,14.9    c-0.1,2.2-2,3.8-4.2,3.7c-2.2-0.1-3.8-2-3.7-4.2c0.9-15.4,9.8-20.9,10.2-21.1C102,95.9,102.3,95.7,102.6,95.6z" id="XMLID_343_"/></g><g id="XMLID_340_"><path class="st6" d="M147.7,273.8c1.7-0.5,3.6,0.1,4.5,1.7c1.1,1.9,0.5,4.3-1.3,5.4c-0.3,0.2-5.7,4-6.4,14.9    c-0.1,2.2-2,3.8-4.2,3.7c-2.2-0.1-3.8-2-3.7-4.2c0.9-15.4,9.8-20.9,10.2-21.1C147.1,274,147.4,273.9,147.7,273.8z" id="XMLID_341_"/></g><g id="XMLID_338_"><path class="st6" d="M337.9,435.8c1.1-1.4,3.1-1.9,4.7-1.1c2,0.9,2.8,3.2,1.9,5.2c-0.2,0.4-2.6,6.5,3,15.9    c1.1,1.9,0.5,4.3-1.4,5.4c-1.9,1.1-4.3,0.5-5.4-1.4c-7.8-13.3-3.5-22.8-3.3-23.2C337.6,436.3,337.7,436,337.9,435.8z" id="XMLID_339_"/></g><g id="XMLID_336_"><path class="st6" d="M406,375.5c1.5,1,2.2,2.8,1.6,4.6c-0.7,2-2.9,3.1-5,2.5c-0.4-0.1-6.7-1.9-15.5,4.6    c-1.8,1.3-4.2,0.9-5.5-0.8c-1.3-1.8-0.9-4.2,0.8-5.5c12.4-9.2,22.3-5.9,22.7-5.8C405.4,375.1,405.7,375.3,406,375.5z" id="XMLID_337_"/></g><g id="XMLID_334_"><path class="st6" d="M473.6,138c1.1-1.4,3.1-1.9,4.7-1.1c2,0.9,2.8,3.2,1.9,5.2c-0.2,0.4-2.6,6.5,3,15.9    c1.1,1.9,0.5,4.3-1.4,5.4c-1.9,1.1-4.3,0.5-5.4-1.4c-7.8-13.3-3.5-22.8-3.3-23.2C473.2,138.5,473.4,138.2,473.6,138z" id="XMLID_335_"/></g><g id="XMLID_332_"><path class="st6" d="M348,42.6c1.1-1.4,3.1-1.9,4.7-1.1c2,0.9,2.8,3.2,1.9,5.2c-0.2,0.4-2.6,6.5,3,15.9    c1.1,1.9,0.5,4.3-1.4,5.4c-1.9,1.1-4.3,0.5-5.4-1.4c-7.8-13.3-3.5-22.8-3.3-23.2C347.6,43.1,347.8,42.8,348,42.6z" id="XMLID_333_"/></g><g id="XMLID_327_"><path class="st6" d="M454.3,245.1c1.1-1.4,3.1-1.9,4.7-1.1c2,0.9,2.8,3.2,1.9,5.2c-0.2,0.4-2.6,6.5,3,15.9    c1.1,1.9,0.5,4.3-1.4,5.4c-1.9,1.1-4.3,0.5-5.4-1.4c-7.8-13.3-3.5-22.8-3.3-23.2C453.9,245.6,454.1,245.3,454.3,245.1z" id="XMLID_328_"/></g><g id="XMLID_325_"><path class="st6" d="M106.4,343.4c1.1-1.4,3.1-1.9,4.7-1.1c2,0.9,2.8,3.2,1.9,5.2c-0.2,0.4-2.6,6.5,3,15.9    c1.1,1.9,0.5,4.3-1.4,5.4c-1.9,1.1-4.3,0.5-5.4-1.4c-7.8-13.3-3.5-22.8-3.3-23.2C106,343.9,106.2,343.6,106.4,343.4z" id="XMLID_326_"/></g><g id="XMLID_321_"><path class="st6" d="M367.4,315.5c1.1-1.4,3.1-1.9,4.7-1.1c2,0.9,2.8,3.2,1.9,5.2c-0.2,0.4-2.6,6.5,3,15.9    c1.1,1.9,0.5,4.3-1.4,5.4c-1.9,1.1-4.3,0.5-5.4-1.4c-7.8-13.3-3.5-22.8-3.3-23.2C367,316,367.2,315.7,367.4,315.5z" id="XMLID_322_"/></g><g id="XMLID_319_"><path class="st6" d="M465.4,317.7c-1.7-0.6-2.8-2.3-2.6-4.1c0.2-2.2,2.1-3.7,4.3-3.6c0.4,0,7,0.2,14-8.1    c1.4-1.7,3.9-1.9,5.6-0.5c1.7,1.4,1.9,3.9,0.5,5.6c-9.9,11.8-20.3,11-20.7,10.9C466,317.9,465.7,317.8,465.4,317.7z" id="XMLID_320_"/></g><g id="XMLID_317_"><path class="st6" d="M381,170.3c-1.7-0.6-2.8-2.3-2.6-4.1c0.2-2.2,2.1-3.7,4.3-3.6c0.4,0,7,0.2,14-8.1    c1.4-1.7,3.9-1.9,5.6-0.5c1.7,1.4,1.9,3.9,0.5,5.6c-9.9,11.8-20.3,11-20.7,10.9C381.6,170.5,381.3,170.4,381,170.3z" id="XMLID_318_"/></g><g id="XMLID_315_"><path class="st6" d="M226,132.3c-1-0.7-1.5-2-1-3.2c0.5-1.4,2.1-2.2,3.5-1.7c0.3,0.1,4.7,1.4,10.9-3    c1.2-0.9,3-0.6,3.8,0.7c0.9,1.2,0.6,3-0.7,3.8c-8.8,6.2-15.7,3.8-15.9,3.7C226.4,132.5,226.2,132.4,226,132.3z" id="XMLID_316_"/></g><g id="XMLID_313_"><path class="st6" d="M161.5,227.4c-1-0.7-1.5-2-1-3.2c0.5-1.4,2.1-2.2,3.5-1.7c0.3,0.1,4.7,1.4,10.9-3    c1.2-0.9,3-0.6,3.8,0.7c0.9,1.2,0.6,3-0.7,3.8c-8.8,6.2-15.7,3.8-15.9,3.7C161.9,227.6,161.7,227.5,161.5,227.4z" id="XMLID_314_"/></g></g></svg>