<svg width="52" height="25" xmlns="http://www.w3.org/2000/svg">

 <g>
  <title>background</title>
  <rect fill="none" id="canvas_background" height="27" width="54" y="-1" x="-1"/>
 </g>
 <g>
  <title>Layer 1</title>
  <path stroke="white" stroke-width="0.05rem"  fill="#000000" id="XMLID_16_" d="m9.408866,11.354289c-0.7891,-0.2162 -1.3236,0.1957 -1.6341,1.259501l-1.245399,4.228801c-2.0242,-3.8236 -2.474601,-4.674001 -2.5903,-4.874701l0.0071,-0.0035c-0.2121,-0.423599 -0.8255,-0.729198 -1.4448,-0.4837c-0.7769,0.295 -1.0563,1.0051 -0.7391,1.9205c0.0336,0.068201 3.3546,6.826903 3.3965,6.913501c0,0 0.070701,0.185101 0.0828,0.2519c0,0 0.026501,0.159702 0.028601,0.159702c-0.0057,0.2187 -0.0745,0.396698 -0.1973,0.513298c-0.124701,0.116199 -0.295501,0.176601 -0.4995,0.164303c0,0 -0.5349,-0.012703 -0.5978,-0.010601c-0.6243,0.077 -1.0346,0.4589 -1.0978,1.0196c-0.0454,0.368801 0.073501,0.696301 0.3441,0.947498c0.3084,0.285099 0.7938,0.4328 1.3886,0.4328c0.2745,0 0.5723,-0.031399 0.8864,-0.095398c0.9295,-0.184101 1.5373,-0.614002 2.0867,-2.3554l2.610399,-8.207902c0.150001,-0.482601 0.1355,-0.9097 -0.0435,-1.2372c-0.1514,-0.269201 -0.401,-0.4519 -0.7416,-0.543001z"/>
  <path stroke="white" stroke-width="0.05rem"  id="XMLID_13_" d="m17.742865,11.989789c-0.840799,-0.636599 -2.020099,-0.842899 -3.408498,-0.5928c-1.764501,0.305601 -2.825101,1.560501 -3.0669,3.628601c-0.2902,2.428901 0.1194,4.2681 1.1846,5.3184c0.6594,0.6511 1.569301,0.986 2.661799,0.986c0.2568,0 0.5238,-0.018398 0.800001,-0.055801c2.208398,-0.310497 3.031398,-1.535397 3.031398,-2.234898c0,-0.601299 -0.3752,-1.072601 -0.901199,-1.143902c-0.3566,-0.071697 -0.636801,0.047703 -1.1113,0.4706c-0.6469,0.5639 -1.392699,0.7924 -2.044499,0.628101c-0.4851,-0.1236 -0.8615,-0.456402 -1.0267,-0.893101c-0.032001,-0.128201 -0.0556,-0.222599 -0.0786,-0.290798l0.0011,0c-0.022099,-0.1166 -0.089,-0.471302 0.0272,-0.548302l4.307299,-0.003201c0.382601,0 0.674601,-0.040298 0.857601,-0.238499c0.2862,-0.319702 0.2761,-1.057702 0.1618,-2.224702c-0.120001,-1.2367 -0.602501,-2.2068 -1.395102,-2.8057zm-1.138199,3.275702l-3.4325,0c-0.0196,-0.056501 -0.012699,-0.168501 0.020301,-0.331001c0.0426,-0.177 0.085799,-0.33 0.218499,-0.5476l0.131801,-0.2038c0.2323,-0.2932 0.5554,-0.494999 0.9362,-0.584299c0.578499,-0.1406 1.0853,-0.0781 1.4646,0.182299c0.346398,0.237101 0.5631,0.621401 0.627398,1.113602c0.027601,0.192799 0.034201,0.3062 0.033701,0.3708z"/>
  <path stroke="white" stroke-width="0.05rem"  id="XMLID_12_" d="m23.620066,9.10209l-0.005501,-0.044201c-0.074699,-0.2957 -0.3125,-0.5511 -0.636299,-0.6833l-0.0005,-0.000399c-0.395901,-0.1604 -0.8465,-0.1187 -1.236,0.1134c-0.387701,0.2293 -0.553101,0.5826 -0.553101,1.1807l0.0021,10.417701c0.059,0.388298 0.063601,0.401699 0.0669,0.4105c0.089399,0.312698 0.319,0.5737 0.6297,0.715801c0.168699,0.077698 0.3503,0.116199 0.5326,0.116199c0.188799,0 0.378201,-0.041302 0.553799,-0.124001c0.446701,-0.192902 0.713301,-0.633801 0.713301,-1.178902l-0.0016,-10.433999c0.000101,0.000099 -0.062099,-0.4662 -0.065399,-0.4895z"/>
  <path stroke="white" stroke-width="0.05rem"  id="XMLID_9_" d="m31.274164,11.28999c-1.013901,-0.206001 -1.877399,-0.036701 -2.731098,0.542299c0,0 -0.071001,0.059401 -0.091002,0.072399l-0.082699,0.041302l-0.0917,-0.214401l-0.076801,-0.114799c-0.271999,-0.423201 -0.9991,-0.628099 -1.645599,-0.2586c-0.379801,0.214399 -0.520901,0.5345 -0.520901,1.1817l0,10.198003c0,0.630299 0.216002,1.0401 0.657101,1.250599c0.201599,0.1017 0.4181,0.152599 0.6322,0.152599c0.1784,0 0.3554,-0.035301 0.520399,-0.106998c0.3167,-0.1381 0.5483,-0.388302 0.641001,-0.7122l0.0639,-0.462101l-0.000401,-1.775299l-0.0173,-0.258602l0.043301,-0.1922l0.1187,0.079102c0,0 0.0616,0.040298 0.1143,0.087997l0.107399,0.072403l0.225801,0.1194c0.903898,0.427799 2.113897,0.379799 3.0826,-0.121502c1.220303,-0.636299 1.8256,-1.756199 1.962902,-3.6311c0.285698,-3.717601 -0.5853,-5.4975 -2.912104,-5.95zm1.374502,4.983798c-0.0168,1.926804 -0.4277,2.643303 -1.5156,2.643303c-0.992901,0 -1.465601,-0.638 -1.532701,-2.068501l-0.0021,-0.042c-0.0049,-0.124001 -0.0166,-0.507301 -0.0166,-0.507301c0.0002,-0.011299 0.0168,-0.425401 0.016399,-0.431399c0.0991,-1.784101 0.4891,-2.199902 1.178202,-2.343401c0.531898,-0.124701 0.933399,-0.069599 1.226999,0.167101c0.460102,0.3699 0.665203,1.1903 0.645401,2.582198z"/>
  <path stroke="white" stroke-width="0.05rem"  id="XMLID_8_" d="m35.874168,18.68639c-0.620502,0 -1.106503,0.485401 -1.106503,1.104702c0,0.620697 0.485901,1.1068 1.106503,1.1068c0.6101,0 1.106499,-0.496403 1.106499,-1.1068c0,-0.609001 -0.496399,-1.104702 -1.106499,-1.104702z"/>
  <path stroke="white" stroke-width="0.05rem"  fill="#ff0000" id="XMLID_7_" d="m36.118969,15.029889c0.1521,0.289701 0.421497,0.4685 0.717899,0.478701c0.016399,0.001101 0.031399,0.001801 0.047298,0.001801c0.162201,0 0.4119,-0.077 3.108402,-0.9433c0.933899,-0.298201 1.186199,-0.3787 1.2612,-0.403801c0.389698,-0.0996 0.658699,-0.455 0.685398,-0.906199c0.0247,-0.460001 -0.223099,-0.868 -0.612099,-1.013601c-0.599201,-0.244099 -0.810303,-0.330299 -0.894901,-0.360399l0.001202,-0.0028c-3.212803,-1.3255 -3.228302,-1.325901 -3.4133,-1.328001c-0.299801,-0.0138 -0.573402,0.142 -0.752102,0.423601c-0.337601,0.5427 -0.467201,2.1339 -0.357498,3.195499c0.043499,0.389299 0.113697,0.677999 0.2085,0.8585z"/>
  <path stroke="white" stroke-width="0.05rem"  fill="#ff0000" id="XMLID_6_" d="m42.869968,14.986089c-0.4291,-0.165699 -0.892403,-0.056499 -1.150803,0.267101c0,0 -0.420399,0.499199 -0.570599,0.6765l-0.0541,0.063599c-2.248699,2.6391 -2.256599,2.662004 -2.3172,2.8373c-0.043098,0.116901 -0.058102,0.237103 -0.044899,0.3536c0.0159,0.169201 0.089897,0.3377 0.214798,0.488201c0.498501,0.592102 2.6567,1.413502 3.615501,1.413502c0.072598,0 0.1385,-0.004601 0.196098,-0.0145c0.330002,-0.060101 0.5704,-0.2491 0.678699,-0.538101c0.0597,-0.1745 0.064503,-0.188702 0.073303,-3.291199c0,0 0.006897,-1.286002 0.007397,-1.324803c0.025703,-0.404099 -0.228798,-0.769798 -0.648197,-0.9312z"/>
  <path stroke="white" stroke-width="0.05rem"  fill="#ff0000" id="XMLID_5_" d="m43.075768,2.41819l-0.0037,-0.017c-0.082802,-0.302099 -0.3204,-0.5229 -0.652199,-0.605499c-0.884102,-0.2197 -4.114902,0.6889 -4.738602,1.3326c-0.226799,0.236 -0.318798,0.543001 -0.2337,0.855301c0.093601,0.192499 3.6101,5.726099 4.009499,6.354599c0.355103,0.575201 0.737503,0.8645 1.139702,0.8645c0.0896,0 0.18,-0.014099 0.271301,-0.0431c0.502197,-0.1544 0.736797,-0.6479 0.696999,-1.466499c-0.055599,-1.2785 -0.4398,-6.989398 -0.4893,-7.2749z"/>
  <path stroke="white" stroke-width="0.05rem"  fill="#ff0000" id="XMLID_4_" d="m45.280266,12.775889l-0.259499,0.2812l0.7089,-0.263599c0.152599,-0.0569 0.458199,-0.130701 0.944,-0.246201c3.3591,-0.813601 3.390697,-0.834101 3.5452,-0.934401c0.249798,-0.169899 0.376099,-0.447599 0.3563,-0.770899l0.0005,-0.033201l-0.001602,-0.014099c-0.090298,-0.8585 -1.527397,-2.9793 -2.2617,-3.3372c-0.303101,-0.146999 -0.610798,-0.1332 -0.8638,0.037399c-0.1544,0.1007 -0.1917,0.149801 -1.994801,2.6161c0,0 -0.751099,1.0231 -0.7859,1.068001c-0.257198,0.311998 -0.264999,0.755999 -0.019798,1.131899c0.1572,0.241001 0.386002,0.4035 0.632198,0.465z"/>
  <path stroke="white" stroke-width="0.05rem"  fill="#ff0000" id="XMLID_3_" d="m50.376766,15.59619c-0.144299,-0.107801 -0.1562,-0.1166 -3.109798,-1.0874c-0.475899,-0.1569 -1.202602,-0.3971 -1.2561,-0.417601c-0.376602,-0.144499 -0.802299,-0.014799 -1.084103,0.3321c-0.290897,0.3547 -0.329399,0.8316 -0.0989,1.1828l0.502403,0.817502c1.757599,2.8549 1.833,2.963398 1.982697,3.080299c0.145,0.1138 0.313503,0.171001 0.493202,0.171001c0.1166,0 0.237801,-0.024002 0.360401,-0.073101c0.771599,-0.308102 2.390697,-2.365299 2.510998,-3.191601c0.044899,-0.328602 -0.063,-0.6239 -0.3008,-0.814z"/>
 </g>
</svg>
